<svg xmlns="http://www.w3.org/2000/svg" width="48" height="48" fill="none" viewBox="0 0 48 48" id="whatsapp-business"><path fill="#25D366" fill-rule="evenodd" d="M23.4571 2.9151C35.0567 2.9151 44.4675 12.3191 44.4675 23.9255C44.4675 35.5318 35.1243 45.1588 23.4571 44.9358C19.1672 44.8548 16.2352 44.544 13.0397 42.1727C10.6009 40.3554 0.967218 49.0568 5.73002 34.809C3.69654 31.5797 2.48726 27.8708 2.43997 23.9255C2.31161 12.3731 11.8507 2.9151 23.4571 2.9151V2.9151Z" clip-rule="evenodd"></path><path fill="#FEFEFE" fill-rule="evenodd" d="M40.6572 7.15101C36.2187 2.71924 30.3277 0.273662 24.0516 0.266907C11.1144 0.266907 0.582158 10.7991 0.575403 23.7364C0.575403 27.8709 1.65632 31.9041 3.71007 35.4643L0.379486 47.6247L12.8236 44.3617C16.2637 46.2376 20.1197 47.2202 24.0381 47.2193H24.0516C36.9889 47.2193 47.5143 36.6939 47.5211 23.7499C47.5278 17.4805 45.089 11.5895 40.6572 7.15101V7.15101ZM16.1812 35.0995C16.3433 35.2009 16.6811 35.2009 17.4648 35.2009C20.7683 35.1941 23.6192 35.1874 25.646 35.1874C35.1175 35.1874 34.8676 25.2159 30.4425 23.9728C31.0911 22.8243 34.0434 20.6625 32.2193 16.2037C30.4088 11.7922 22.6397 12.7921 17.3229 12.7921C15.357 12.7921 15.6475 14.2513 15.661 16.5077C15.6745 20.0883 15.661 29.776 15.661 33.9646C15.661 34.809 15.9177 34.9441 16.1812 35.0995V35.0995ZM20.2752 31.4447H25.092C27.139 31.4379 28.963 30.4854 28.9157 28.4451C28.882 26.5265 27.6051 25.8914 25.8284 25.7158C24.1394 25.7361 22.2073 25.7361 20.2752 25.7361V31.4447ZM20.2752 21.8785C23.8422 21.8312 25.2136 22.0204 27.1593 21.534C28.4969 20.7773 29.0779 17.9602 27.166 17.0076C25.8351 16.3456 21.91 16.5685 20.2752 16.6361V21.8785ZM24.0516 43.2537H24.0381C20.5386 43.2537 17.1067 42.3147 14.1139 40.5379L13.3978 40.1123L6.01378 42.0512L7.98645 34.8563L7.52031 34.1132C5.56817 31.0046 4.5353 27.4071 4.54102 23.7364C4.54102 12.9812 13.2965 4.23253 24.0584 4.23253C29.267 4.23253 34.165 6.26601 37.8468 9.95464C41.5355 13.6365 43.5622 18.5412 43.5622 23.7499C43.5554 34.505 34.8 43.2537 24.0516 43.2537Z" clip-rule="evenodd"></path><path fill="#25D366" fill-rule="evenodd" d="M0.308558 23.7362C0.31539 10.6517 10.967 0 24.0516 0H24.0518L24.0519 1.48895e-07C30.3987 0.006832 36.3574 2.48054 40.8458 6.96212L40.658 7.15017L40.8461 6.96241C45.3278 11.4509 47.7948 17.4098 47.7879 23.7501C47.781 36.8412 37.1363 47.4861 24.0516 47.4861H24.0382C20.1105 47.487 16.2449 46.5109 12.7891 44.6465L0 48L3.42339 35.5008C1.38226 31.9237 0.308558 27.8801 0.308558 23.7363L0.308558 23.7362ZM40.4684 7.3395C36.0798 2.95776 30.2567 0.54042 24.0515 0.533704C11.2617 0.533785 0.84894 10.9465 0.842261 23.7364C0.842286 27.8242 1.91094 31.8113 3.94123 35.3309L3.99686 35.4274L0.758986 47.2492L12.8583 44.0766L12.9513 44.1273C16.3523 45.9819 20.1643 46.9533 24.0381 46.9524H24.0516C36.8414 46.9524 47.2475 36.5465 47.2542 23.7497V23.7495C47.2609 17.5512 44.8503 11.728 40.4684 7.3395ZM24.0584 4.49933C13.4437 4.49933 4.80788 13.1287 4.80788 23.7363V23.7365V23.7367C4.80224 27.3571 5.82094 30.9052 7.7463 33.9712L7.74637 33.9713L8.27481 34.8138L6.39346 41.6755L13.4381 39.8258L14.2501 40.3084C14.2502 40.3084 14.2502 40.3084 14.2503 40.3084C17.2016 42.0605 20.5863 42.9868 24.0381 42.9868H24.0516C34.6527 42.9868 43.2887 34.3575 43.2954 23.7497C43.2953 18.6117 41.2966 13.7751 37.6583 10.1435L37.6582 10.1433L37.658 10.1431C34.0261 6.50455 29.1961 4.49933 24.0584 4.49933ZM4.27418 23.7361C4.2743 12.8335 13.1494 3.96562 24.0584 3.96562C29.3379 3.96562 34.3037 6.02729 38.0355 9.7659C41.7744 13.498 43.8291 18.4706 43.8291 23.7498V23.75C43.8222 34.6524 34.9474 43.5205 24.0516 43.5205H24.0381C20.491 43.5205 17.012 42.5687 13.9777 40.7673L13.9776 40.7672L13.3575 40.3987L5.6341 42.4267L7.69811 34.8988L7.29433 34.255C5.31544 31.1038 4.26841 27.4571 4.27418 23.7361ZM26.1142 12.5782C28.9574 12.8807 31.4993 13.7464 32.4662 16.1023L32.4662 16.1025L32.4663 16.1026C33.4079 18.4044 33.1212 20.1378 32.4991 21.4443C32.1912 22.091 31.8045 22.6261 31.4604 23.0658C31.3744 23.1757 31.2907 23.2801 31.2117 23.3785L31.1977 23.3959C31.1237 23.4882 31.0543 23.5745 30.99 23.6566C30.9417 23.7183 30.8973 23.7762 30.857 23.8308C31.8863 24.2353 32.6643 25.0902 33.1353 26.1402C33.6571 27.3037 33.812 28.7247 33.5164 30.1022C33.2202 31.4825 32.4701 32.8251 31.1763 33.8213C29.8821 34.8177 28.0616 35.4541 25.646 35.4541C23.94 35.4541 21.65 35.4589 18.9972 35.4645C18.4989 35.4655 17.9878 35.4666 17.4653 35.4677H17.4535C17.0713 35.4677 16.7843 35.4677 16.5733 35.4545C16.3717 35.4419 16.1863 35.4159 16.0432 35.3279C16.037 35.3242 16.0307 35.3205 16.0242 35.3167C15.8997 35.2438 15.7238 35.1408 15.5946 34.9296C15.4605 34.7104 15.3941 34.4082 15.3941 33.9645C15.3941 32.7132 15.3953 30.9715 15.3967 29.0487C15.3998 24.5338 15.4036 19.0201 15.3941 16.5092C15.3941 16.509 15.3941 16.5088 15.3941 16.5087L15.661 16.5077L15.3941 16.5093C15.3941 16.5092 15.3941 16.5092 15.3941 16.5092C15.3926 16.2578 15.3874 16.0061 15.3823 15.7638C15.3764 15.4828 15.3708 15.2144 15.3717 14.9742C15.3732 14.5164 15.3967 14.0937 15.4917 13.7353C15.5884 13.3705 15.7641 13.0542 16.0803 12.8357C16.3908 12.6212 16.8023 12.5252 17.3229 12.5252C18.1112 12.5252 18.9613 12.5026 19.8422 12.4792C21.8967 12.4248 24.1187 12.3658 26.1142 12.5782ZM16.1812 35.0995L16.3226 34.8732C16.3411 34.8847 16.4043 34.9092 16.6065 34.9218C16.7987 34.9338 17.0687 34.934 17.4642 34.934C17.9864 34.9329 18.4972 34.9318 18.9953 34.9308C21.6484 34.9252 23.9393 34.9204 25.646 34.9204C27.9662 34.9204 29.6662 34.3104 30.8507 33.3984C32.0356 32.4861 32.7225 31.2581 32.9946 29.9902C33.2673 28.7194 33.1219 27.4145 32.6483 26.3587C32.1748 25.3028 31.383 24.5141 30.3704 24.2297L30.043 24.1377L30.2102 23.8415C30.3019 23.6792 30.4297 23.5064 30.5698 23.3275C30.6362 23.2428 30.7074 23.1541 30.7808 23.0627L30.7956 23.0443C30.8746 22.946 30.9564 22.8439 31.0401 22.7369C31.375 22.3089 31.734 21.8095 32.0172 21.2148C32.5773 20.0386 32.8547 18.4619 31.9724 16.305C31.1288 14.2494 28.8809 13.4093 26.0577 13.1089C24.0987 12.9004 21.939 12.9578 19.9002 13.0121C19.0091 13.0358 18.141 13.0589 17.3229 13.0589C16.8606 13.0589 16.5712 13.1452 16.3836 13.2748C16.2018 13.4005 16.0823 13.59 16.0076 13.872C15.9311 14.1605 15.9069 14.5257 15.9054 14.9761C15.9045 15.2204 15.9099 15.4711 15.9156 15.7398C15.9208 15.9783 15.9262 16.231 15.9278 16.5061L15.9278 16.5064L15.9278 16.5067C15.9373 19.0186 15.9335 24.5355 15.9304 29.0512C15.929 30.9734 15.9278 32.7142 15.9278 33.9645C15.9278 34.3653 15.9898 34.5529 16.0499 34.6511C16.1074 34.7451 16.1783 34.788 16.3167 34.8696L16.1812 35.0995ZM25.7902 16.3959C26.3776 16.4678 26.9099 16.5821 27.2849 16.7687L27.285 16.7687C28.3651 17.3069 28.7267 18.372 28.6472 19.3655C28.5688 20.3447 28.0575 21.3324 27.2906 21.7662L27.2591 21.784L27.224 21.7928C25.7646 22.1577 24.6054 22.1514 22.6925 22.1409C22.0024 22.1372 21.2143 22.1329 20.2787 22.1453L20.0083 22.1489V16.38L20.2641 16.3694C20.3731 16.3649 20.4926 16.3597 20.6211 16.3541C21.4519 16.3178 22.6594 16.2652 23.8383 16.2814C24.5191 16.2907 25.1962 16.3231 25.7902 16.3959ZM20.542 16.8917V21.6084C21.3979 21.5995 22.1204 21.6034 22.7521 21.6067C24.6138 21.6167 25.6858 21.6224 27.058 21.2841C27.6143 20.9506 28.0478 20.1645 28.1152 19.3229C28.1826 18.4805 27.8788 17.6609 27.047 17.2464C26.7566 17.102 26.2992 16.9959 25.7253 16.9256C25.158 16.8561 24.5021 16.8242 23.8309 16.815C22.6687 16.7991 21.4782 16.8509 20.6464 16.8872C20.6109 16.8887 20.5761 16.8903 20.542 16.8917ZM25.8399 25.4487L25.8546 25.4502C26.76 25.5397 27.5837 25.7491 28.1886 26.2154C28.8091 26.6938 29.1644 27.4144 29.1826 28.4398C29.2081 29.5536 28.717 30.3839 27.9422 30.926C27.1785 31.4604 26.1522 31.708 25.0929 31.7115L25.0924 31.7115H20.0083V25.4692H20.2752C22.2077 25.4692 24.1382 25.4692 25.8252 25.4489L25.8399 25.4487ZM20.542 26.0029V31.1778L25.0911 31.1778C25.0914 31.1778 25.0916 31.1778 25.0918 31.1778C26.0792 31.1744 26.9881 30.9423 27.6362 30.4888C28.2732 30.043 28.6704 29.3772 28.649 28.4512L28.649 28.4505L28.6489 28.4498C28.6332 27.5568 28.3332 27.0008 27.8628 26.6381C27.3793 26.2654 26.6814 26.0696 25.8167 25.9828C24.2073 26.0019 22.3788 26.0028 20.542 26.0029Z" clip-rule="evenodd"></path><path fill="#FEFEFE" fill-rule="evenodd" d="M16.0866 35.0792C16.2488 35.1805 16.5933 35.1805 17.3702 35.1805C20.6738 35.1738 23.5247 35.167 25.5514 35.167C35.023 35.167 34.7798 25.1955 30.348 23.9525C30.9965 22.804 33.9488 20.6422 32.1248 16.1834C30.3142 11.7719 22.5451 12.7717 17.2283 12.7717C15.2624 12.7717 15.5597 14.231 15.5664 16.4874C15.5799 20.0679 15.5732 29.7557 15.5664 33.9442C15.5664 34.7887 15.8231 34.9238 16.0866 35.0792V35.0792ZM20.1874 31.4243H24.9974C27.0444 31.4176 28.8685 30.465 28.8212 28.4248C28.7874 26.5061 27.5106 25.8711 25.7338 25.6954C24.0516 25.7157 22.1195 25.7157 20.1874 25.7157V31.4243ZM20.1874 21.8582C23.7476 21.8109 25.119 22.0001 27.0647 21.5136C28.4023 20.757 28.9833 17.9399 27.0715 16.9873C25.7473 16.3252 21.8155 16.5482 20.1874 16.6157V21.8582Z" clip-rule="evenodd"></path></svg>